# xmcd
#
# Track frame offsets:
#	150
#	13424
#	31883
#	42997
#	64884
#	80116
#	94560
#	110827
#	124577
#	140064
#
# Disc length: 2094 seconds
#
# Revision: 0
# Processed by: cddbd v1.5.2PL0 Copyright (c) Steve Scherf et al.
# Submitted via: audiograbber 1.83.01
#
DISCID=8e082c0a
DTITLE=Allie Danielle - Just How I Dreamed It
DYEAR=2002
DGENRE=Country
TTITLE0=I Miss You
TTITLE1=Lovin' Without You
TTITLE2=Fallin' In Love
TTITLE3=Love Without Fear
TTITLE4=Just How I Dreamed It
TTITLE5=Close Enough To Close My Eyes
TTITLE6=Tangled Up In You
TTITLE7=Sinkin' In
TTITLE8=A Car That Flies
TTITLE9=I Just Do
EXTD=
EXTT0=
EXTT1=
EXTT2=
EXTT3=
EXTT4=
EXTT5=
EXTT6=
EXTT7=
EXTT8=
EXTT9=
PLAYORDER=
